Coordinates
version=1
nRows=13
nColumns=36
inDegrees=yes

Units are S.I. units (second, meters, Newtons, ...)
If the header above contains a line with 'inDegrees', this indicates whether rotational values are in degrees (yes) or radians (no).

endheader
time	pelvis_tilt	pelvis_list	pelvis_rotation	pelvis_tx	pelvis_ty	pelvis_tz	hip_flexion_r	hip_adduction_r	hip_rotation_r	knee_angle_r	knee_angle_r_beta	ankle_angle_r	subtalar_angle_r	mtp_angle_r	hip_flexion_l	hip_adduction_l	hip_rotation_l	knee_angle_l	knee_angle_l_beta	ankle_angle_l	subtalar_angle_l	mtp_angle_l	lumbar_extension	lumbar_bending	lumbar_rotation	arm_flex_r	arm_add_r	arm_rot_r	elbow_flex_r	pro_sup_r	arm_flex_l	arm_add_l	arm_rot_l	elbow_flex_l	pro_sup_l
      0.00000000	      7.13883257	     -2.48026175	      1.08020681	     -0.99243674	      1.26155040	     -0.06248599	     -8.16216307	      2.01360820	     -2.42680799	      5.86598379	      0.10238073	      1.51819225	    -14.21428301	     -5.76655682	     -8.91257910	     -3.25356968	     -1.13109144	      4.03398243	      0.07040628	      8.17135687	     -7.13020435	     -5.76655682	    -17.70474006	      4.62502184	     -0.16711495	      6.46425966	    -10.91279377	      2.06288597	     29.51504328	     80.08906650	      2.38988843	     -9.31655114	     10.47874584	     31.53502661	     70.32696551
      0.00416670	      5.68197612	     -2.01533918	      1.22786874	     -0.99002225	      1.25939645	     -0.06330589	     -6.75828795	      1.90883465	     -1.50118440	      5.91836044	      0.10329488	      4.62097104	    -11.72614444	     -6.63924641	     -6.64415741	     -2.40008749	     -1.04587730	      4.65041086	      0.08116498	      7.78413417	     -6.10740937	     -6.63924641	    -15.14323513	      4.29851174	     -0.42734847	      5.45238693	    -10.04746958	     -3.29139687	     29.90080632	     83.73982127	      2.04964298	     -8.33685027	      4.10131308	     30.35590762	     74.17773234
      0.00833330	      5.19234977	     -1.55298274	      0.93891727	     -0.98961993	      1.25763561	     -0.06227687	     -6.40941642	      1.42501495	     -2.08642056	      5.52597885	      0.09644653	      5.55234413	    -11.23119703	     -6.79126882	     -6.22780289	     -1.96284117	     -1.90330854	      4.56218346	      0.07962512	      7.77742784	     -5.36314840	     -6.79126882	    -14.43576769	      3.47350324	     -0.34155136	      4.97797025	     -9.91909926	     -3.72197573	     30.53317430	     81.35579319	      1.99329472	     -9.15880654	      4.83030498	     30.64713242	     72.94845294
      0.01250000	      5.62478706	     -1.31477820	      0.89312706	     -0.99059259	      1.25897087	     -0.06221597	     -6.87684248	      1.10220020	     -2.39065969	      5.22190772	      0.09113948	      6.69011411	    -10.24265399	     -6.92753098	     -7.07350594	     -1.64959206	     -1.92233238	      3.99277601	      0.06968709	      7.81283926	     -5.57629357	     -6.92753098	    -14.94345491	      3.05699553	      0.07387508	      4.58974172	     -9.85752652	     -4.17546586	     30.82018490	     78.63422703	      2.60755332	    -10.06349306	      7.99068313	     30.14379208	     72.27127841
      0.01666670	      5.97256142	     -1.20933707	      0.81107475	     -0.99085052	      1.26116093	     -0.06188598	     -7.32132635	      1.05637982	     -2.23297575	      4.89796652	      0.08548564	      7.07271436	    -10.18107798	     -6.95785172	     -7.69818837	     -1.51295239	     -1.94259850	      3.57713992	      0.06243287	      7.78860905	     -5.71369139	     -6.95785172	    -15.58339023	      2.90654097	      0.17305900	      4.43185480	     -9.82861223	     -4.26517134	     31.47557082	     77.79712676	      2.72987170	    -10.28942230	      8.45237998	     30.54735609	     71.86854851
      0.02083330	      6.23804854	     -1.13317458	      0.82672941	     -0.99042028	      1.25958887	     -0.06231524	     -7.65834358	      1.00794541	     -2.32147137	      4.62681906	      0.08075323	      7.46709541	     -9.84442856	     -7.06018611	     -8.04577385	     -1.42758741	     -1.81888089	      3.37343532	      0.05887755	      7.74096443	     -6.12738390	     -7.06018611	    -15.93925246	      2.82387819	      0.58708622	      4.04062983	     -9.95161774	     -4.41087325	     32.03973866	     75.32428854	      3.47083595	    -10.55422889	     10.82689879	     30.05156063	     70.96277390
      0.02500000	      6.46958887	     -1.07336821	      0.88048714	     -0.99095089	      1.26160820	     -0.06212015	     -8.00548424	      0.99333173	     -2.14322528	      4.40748664	      0.07692515	      7.60235133	     -9.58773998	     -7.10734603	     -8.38930629	     -1.36788270	     -1.68682091	      3.21105073	      0.05604341	      7.59886030	     -6.43435972	     -7.10734603	    -16.37059660	      2.77029071	      0.69483576	      3.94299967	     -9.97743514	     -4.43973132	     32.51935195	     74.25864990	      3.86353417	    -10.61323666	     11.40448145	     30.10967528	     70.35474842
      0.02916670	      6.65949092	     -0.97125429	      0.95499182	     -0.99042414	      1.26228937	     -0.06156121	     -8.40109608	      0.98659977	     -2.00239868	      4.02259982	      0.07020761	      7.67556194	     -8.98548955	     -7.17982159	     -8.62885149	     -1.30160629	     -1.66328054	      3.13501689	      0.05471637	      7.49065912	     -6.49258435	     -7.17982159	    -16.71269438	      2.63562777	      0.71035019	      3.79219501	     -9.89299829	     -4.47275533	     32.99179386	     72.64525338	      4.00897801	    -10.68256262	     11.54746218	     30.39185897	     69.19396124
      0.03333330	      6.78087016	     -0.93663074	      1.03625140	     -0.99036160	      1.26194448	     -0.06117756	     -8.68560848	      1.00056772	     -1.74038917	      3.83181273	      0.06687775	      7.49525516	     -8.98380243	     -7.20891821	     -8.74316722	     -1.33328600	     -1.80029724	      3.14750164	      0.05493427	      7.20591921	     -6.66120138	     -7.20891821	    -16.82060274	      2.58863907	      0.72832508	      3.74339569	     -9.88337374	     -4.29660157	     32.97537326	     71.91406687	      4.27565328	    -10.61435501	     11.90827983	     30.08640758	     68.65525058
      0.03750000	      6.81242665	     -0.93079831	      1.08961363	     -0.98940952	      1.26220046	     -0.06186872	     -8.89323898	      1.00575893	     -1.74258834	      3.68458152	      0.06430808	      7.27493733	     -9.00997174	     -7.21889828	     -8.83228682	     -1.33992647	     -1.57407909	      3.03210186	      0.05292016	      6.76154753	     -7.14127845	     -7.21889828	    -16.78272202	      2.60498114	      0.72807071	      3.68778687	     -9.92415858	     -4.02199117	     32.87281274	     71.89537740	      4.50170482	    -10.59755141	     12.48669166	     29.60797481	     68.62443756
      0.04166670	      6.88821951	     -0.96371347	      1.13597044	     -0.98918342	      1.25805138	     -0.06098367	     -9.07626161	      1.05981233	     -1.60305324	      3.56172816	      0.06216388	      7.20343010	     -9.19294528	     -7.24779581	     -8.92898027	     -1.41139231	     -1.59589697	      3.01355803	      0.05259651	      6.65737002	     -7.25768295	     -7.24779581	    -16.82967560	      2.63657177	      0.80463954	      3.45876731	     -9.99941001	     -3.77611118	     33.13962053	     71.47939476	      4.61110053	    -10.74989882	     13.25916062	     29.61897428	     68.11435360
      0.04583330	      6.93404637	     -1.00700219	      1.19893188	     -0.98942419	      1.25964553	     -0.06204988	     -9.22037660	      1.10057556	     -1.48082778	      3.47143489	      0.06058797	      7.13471526	     -9.23614485	     -7.26396628	     -9.01516320	     -1.44565824	     -1.44364405	      2.98390654	      0.05207899	      6.65726314	     -7.15840048	     -7.26396628	    -16.93090931	      2.72008148	      0.74873272	      3.34408075	    -10.04264429	     -3.74415646	     33.45830936	     70.98945806	      4.57681745	    -10.76641189	     13.23165119	     29.80135840	     67.68213934
      0.05000000	      6.92989975	     -1.05193730	      1.18816765	     -0.99017608	      1.25862840	     -0.06059894	     -9.22350925	      1.15637521	     -1.27733044	      3.40217470	      0.05937915	      7.18347127	     -9.41414318	     -7.31509883	     -9.01473619	     -1.50118360	     -1.35400937	      2.97967975	      0.05200522	      6.57013442	     -7.33284795	     -7.31509883	    -16.90807253	      2.76126784	      0.77611443	      3.31309159	    -10.08672224	     -3.47001365	     33.52556407	     69.84628534	      4.61516437	    -10.81132206	     13.35845982	     29.73065449	     66.72445321
